<?xml version="1.0" standalone="no"?>
<!DOCTYPE svg PUBLIC "-//W3C//DTD SVG 20010904//EN"
 "http://www.w3.org/TR/2001/REC-SVG-20010904/DTD/svg10.dtd">
<svg version="1.0" xmlns="http://www.w3.org/2000/svg"
 width="500.000000pt" height="500.000000pt" viewBox="0 0 500.000000 500.000000"
 preserveAspectRatio="xMidYMid meet">

<g transform="translate(0.000000,500.000000) scale(0.100000,-0.100000)"
fill="#000000" stroke="none">
<path d="M2245 4250 c-490 -69 -947 -360 -1228 -781 -126 -190 -215 -407 -261
-639 -29 -148 -43 -300 -28 -300 6 0 13 26 16 58 16 150 29 235 52 324 126
501 456 913 916 1144 391 196 802 239 1241 128 426 -107 819 -404 1055 -796
143 -238 213 -464 248 -800 3 -32 10 -58 16 -58 7 0 8 28 3 83 -68 806 -630
1446 -1421 1618 -81 17 -140 22 -324 24 -124 2 -252 0 -285 -5z"/>
<path d="M2343 4155 c-79 -34 -85 -178 -8 -213 94 -43 192 46 165 149 -19 70
-83 96 -157 64z m101 -25 c11 -11 21 -38 24 -68 5 -61 -17 -109 -55 -118 -88
-22 -138 126 -65 193 29 27 64 25 96 -7z"/>
<path d="M2596 4143 c-3 -15 -8 -59 -11 -98 -4 -38 -9 -78 -11 -87 -4 -13 5
-18 50 -23 105 -13 156 20 156 103 0 79 -33 108 -142 126 -34 6 -37 5 -42 -21z
m119 -16 c34 -28 44 -91 22 -134 -18 -33 -62 -56 -99 -51 -22 3 -23 6 -21 73
4 117 9 135 43 135 16 0 41 -10 55 -23z"/>
<path d="M2073 4106 c-24 -21 -26 -27 -18 -52 8 -21 23 -33 60 -47 62 -23 75
-34 75 -63 0 -27 -12 -36 -65 -46 -39 -7 -39 -7 8 -4 56 4 87 28 87 66 0 33
-22 53 -75 70 -52 16 -65 27 -65 56 0 22 4 24 45 24 25 0 45 5 45 10 0 20 -69
10 -97 -14z"/>
<path d="M2881 4078 c-6 -24 -19 -73 -30 -110 l-20 -68 62 -18 c34 -11 66 -17
71 -14 12 7 -12 18 -56 26 -42 8 -43 11 -26 68 12 41 18 43 74 21 12 -4 15 -3
10 5 -4 7 -15 12 -24 12 -37 0 -44 14 -32 59 12 46 16 47 67 26 41 -17 43 -18
43 -7 0 7 -104 42 -124 42 -2 0 -9 -19 -15 -42z"/>
<path d="M1917 4063 c-9 -16 69 -208 86 -211 10 -2 17 -2 17 0 0 2 -18 50 -39
108 -36 97 -52 123 -64 103z"/>
<path d="M3110 4011 c-16 -30 -12 -46 21 -100 33 -52 33 -73 1 -90 -14 -8 -28
-6 -56 8 -45 23 -47 18 -3 -9 58 -36 117 -18 117 35 0 13 -14 46 -31 73 -47
76 -21 121 41 72 27 -21 40 -25 40 -12 0 14 -58 42 -89 42 -20 0 -34 -7 -41
-19z"/>
<path d="M1745 3988 c-22 -11 -41 -22 -43 -23 -2 -2 20 -48 47 -104 37 -73 55
-99 66 -95 12 5 10 14 -9 53 l-24 47 39 22 c46 27 58 61 35 97 -20 31 -56 32
-111 3z m79 -20 c21 -30 20 -44 -4 -68 -29 -29 -45 -25 -65 20 -15 32 -15 42
-5 55 18 22 56 18 74 -7z"/>
<path d="M1555 3879 c-22 -17 -46 -34 -54 -38 -11 -7 0 -29 49 -100 35 -50 68
-91 74 -91 20 1 111 73 97 78 -7 2 -28 -10 -46 -28 l-33 -32 -32 43 -31 43 23
18 c13 10 26 18 31 18 4 0 7 5 7 11 0 6 -14 0 -32 -12 l-31 -23 -24 28 c-31
37 -26 57 20 79 21 10 35 22 32 27 -8 13 -3 14 -50 -21z"/>
<path d="M2360 3870 c-316 -30 -624 -181 -850 -417 -247 -256 -377 -569 -385
-927 -3 -109 -7 -142 -19 -155 -14 -14 -14 -17 5 -37 13 -14 28 -56 40 -110
123 -566 551 -983 1114 -1086 104 -19 390 -16 495 5 494 99 893 448 1050 917
26 77 59 224 60 261 0 15 9 38 20 52 17 22 18 26 5 37 -11 9 -15 35 -15 104 0
380 -181 774 -468 1019 l-79 68 7 42 c10 66 51 132 105 167 35 23 17 27 -25 5
-51 -26 -83 -80 -88 -146 -2 -32 -6 -59 -9 -59 -2 0 -30 17 -61 39 -135 91
-335 172 -507 204 -103 20 -287 28 -395 17z m-25 -310 c-3 -5 -13 -10 -21 -10
-8 0 -12 5 -9 10 3 6 13 10 21 10 8 0 12 -4 9 -10z m39 -107 c-48 -47 -82 -92
-109 -143 -36 -67 -40 -72 -43 -47 -9 76 66 189 154 236 70 36 69 22 -2 -46z
m-178 -43 c-13 -36 -27 -91 -30 -122 -4 -32 -11 -58 -16 -58 -21 0 -27 80 -10
140 9 32 68 116 76 108 2 -2 -7 -33 -20 -68z m454 61 c0 -4 -39 -26 -87 -47
-68 -30 -104 -54 -160 -108 -41 -38 -73 -62 -73 -53 0 54 69 136 151 178 56
28 169 48 169 30z m218 -39 c8 -6 2 -9 -17 -9 -17 0 -28 4 -25 9 7 10 25 10
42 0z m-72 -117 c18 -13 15 -14 -29 -15 -75 0 -132 -19 -178 -58 -54 -47 -79
-101 -79 -177 0 -77 29 -138 107 -228 109 -124 163 -239 163 -344 0 -69 -9
-62 -44 40 -36 103 -80 176 -162 266 -39 44 -80 102 -97 139 -71 152 -15 322
124 374 57 21 168 23 195 3z m-732 -46 c3 -17 6 -41 6 -52 0 -19 -1 -20 -20
-2 -20 18 -25 41 -14 69 10 25 21 19 28 -15z m784 -99 c95 -58 88 -210 -13
-298 -42 -37 -61 -40 -70 -11 -5 15 0 29 18 47 36 39 57 86 57 128 0 48 -24
74 -67 74 -54 0 -89 -24 -114 -80 -25 -55 -34 -61 -44 -29 -21 66 10 144 70
174 44 21 123 19 163 -5z m-830 -2 c20 -20 14 -40 -10 -36 -15 2 -24 11 -26
26 -4 24 16 30 36 10z m354 -10 c15 -12 15 -21 2 -98 -11 -66 -19 -89 -39
-107 -14 -13 -25 -30 -25 -38 0 -8 -8 -22 -19 -32 -10 -10 -21 -38 -25 -62
-13 -85 -61 -138 -144 -161 -38 -10 -42 -14 -37 -33 4 -12 18 -39 31 -59 l24
-38 -21 0 c-22 0 -80 53 -131 120 -23 29 -29 33 -38 20 -6 -8 -8 -24 -5 -35 4
-11 10 -45 15 -75 5 -30 10 -64 12 -75 3 -18 -2 -20 -39 -18 -50 2 -61 -22
-15 -33 75 -17 192 -58 192 -66 0 -6 -10 -8 -22 -5 -74 18 -199 39 -204 34
-10 -10 6 -27 26 -27 25 0 164 -56 168 -68 2 -6 -30 -1 -69 9 -73 19 -178 26
-149 10 8 -4 52 -19 97 -31 46 -13 81 -25 79 -27 -2 -3 -45 0 -94 6 -140 15
-265 86 -278 157 -9 47 9 82 49 99 30 12 55 34 71 62 12 22 -21 42 -56 33 -72
-18 -128 -22 -128 -8 0 7 71 83 159 168 87 85 161 165 165 177 8 24 143 131
208 164 77 39 211 59 240 37z m-1067 -58 c-9 -16 -18 -30 -21 -30 -2 0 2 14
11 30 9 17 18 30 21 30 2 0 -2 -13 -11 -30z m2015 -87 c0 -7 7 -13 15 -13 8 0
25 -14 37 -31 18 -24 27 -29 48 -24 l25 7 -23 -20 -22 -19 29 -13 c17 -6 35
-9 40 -5 6 3 11 2 11 -3 0 -6 -7 -13 -16 -16 -9 -4 -15 -9 -12 -11 9 -9 38 7
38 20 0 8 9 15 20 17 12 2 21 8 21 13 0 6 7 14 15 18 8 5 11 14 7 20 -5 9 -2
8 9 0 8 -7 18 -9 22 -5 4 4 7 3 6 -3 -1 -5 -1 -19 0 -30 1 -15 3 -16 7 -5 15
37 63 56 63 24 0 -10 -6 -14 -15 -10 -9 3 -15 0 -15 -9 0 -8 6 -15 14 -15 8 0
16 -6 19 -12 3 -10 7 -10 20 1 10 8 27 11 43 7 l26 -7 -28 26 c-23 22 -26 28
-14 35 11 7 16 4 20 -13 6 -21 6 -21 14 -2 7 17 11 12 26 -30 27 -72 70 -278
70 -336 l0 -49 -234 0 -234 0 -10 28 c-9 27 -8 28 13 24 17 -3 24 1 27 15 6
28 -12 113 -33 157 -10 21 -16 43 -13 47 3 5 1 9 -4 9 -5 0 -8 12 -6 26 2 18
-4 27 -20 34 -12 4 -35 25 -51 46 l-28 37 30 -18 c60 -35 82 2 39 66 -18 26
-21 36 -10 36 8 0 14 -6 14 -14z m423 -35 c4 -15 2 -17 -7 -9 -7 6 -16 8 -19
4 -4 -3 -7 0 -7 9 0 21 28 18 33 -4z m-333 -18 c0 -5 -5 -10 -11 -10 -5 0 -7
5 -4 10 3 6 8 10 11 10 2 0 4 -4 4 -10z m-2155 -29 c-17 -40 -9 -91 9 -62 11
16 57 19 63 4 3 -8 1 -18 -5 -22 -5 -3 17 -6 51 -6 39 0 62 -4 65 -13 2 -6 8
-10 13 -6 10 6 -14 34 -29 34 -5 0 -12 15 -14 34 -2 19 0 32 4 30 4 -3 8 0 8
5 0 6 4 11 10 11 5 0 7 -7 3 -16 -3 -9 -1 -19 4 -23 5 -3 15 -15 21 -26 11
-20 12 -20 18 2 5 18 10 21 24 13 26 -14 30 -13 30 7 0 13 3 14 12 5 17 -17
28 -15 29 6 0 10 3 12 6 5 7 -18 33 -16 33 1 0 8 4 17 9 20 5 4 7 -4 3 -16 -4
-16 -2 -20 10 -15 9 3 21 0 27 -6 8 -8 11 -8 11 0 0 7 10 10 25 7 14 -2 25 0
25 6 0 5 7 10 15 10 9 0 27 7 40 16 14 9 25 13 25 9 0 -4 7 -1 17 6 15 13 15
12 2 -9 -8 -13 -62 -66 -122 -117 -166 -145 -189 -181 -163 -256 l14 -39 -77
-2 c-42 -1 -101 -2 -131 -1 -30 0 -88 1 -129 2 l-74 1 7 73 c13 130 68 333 88
321 6 -4 8 1 3 15 -5 16 -3 20 10 15 10 -4 14 -13 10 -23z m2235 11 c0 -13
-36 -43 -42 -36 -4 3 1 14 10 24 18 20 32 25 32 12z m-1753 -8 c-3 -3 -12 -4
-19 -1 -8 3 -5 6 6 6 11 1 17 -2 13 -5z m1940 -26 c-3 -8 -6 -5 -6 6 -1 11 2
17 5 13 3 -3 4 -12 1 -19z m-2315 -24 c-4 -23 -6 -24 -15 -9 -8 14 2 32 19 35
1 0 -1 -12 -4 -26z m1148 -93 c73 -81 113 -148 147 -245 40 -112 42 -281 5
-294 -8 -2 -12 13 -12 54 0 67 -31 187 -67 259 -14 28 -54 98 -89 156 -94 155
-87 185 16 70z m-37 -147 c41 -49 78 -143 89 -229 18 -133 -3 -213 -112 -430
-49 -99 -95 -202 -101 -230 -17 -74 -29 -78 -29 -10 0 81 12 119 81 265 109
233 125 375 59 550 -42 115 -47 135 -28 124 9 -5 27 -23 41 -40z m-35 -265 c7
-105 -42 -238 -140 -381 -74 -110 -124 -276 -116 -388 4 -57 -7 -65 -26 -17
-23 54 -28 109 -16 180 15 97 42 161 122 294 94 154 120 228 126 363 l5 105
21 -45 c11 -25 22 -75 24 -111z m503 94 c27 -70 37 -214 20 -294 -20 -94 -78
-199 -111 -199 -6 0 -1 18 9 39 11 21 30 72 41 112 24 88 27 253 6 342 -12 47
-12 57 -1 57 8 0 24 -26 36 -57z m-1356 -41 c7 -31 24 -91 31 -109 5 -10 -45
-13 -229 -13 l-234 0 -7 53 c-12 107 -37 96 214 96 l220 1 5 -28z m2260 -46
c-4 -39 -8 -72 -9 -73 -4 -4 -123 -7 -284 -5 l-183 2 6 53 c12 103 -17 92 245
93 l232 1 -7 -71z m-2087 -123 c25 -15 73 -37 106 -48 47 -16 61 -25 61 -40 0
-23 -74 -65 -113 -65 -37 0 -93 39 -108 76 -20 47 -18 104 3 104 3 0 25 -12
51 -27z m-131 -68 c30 -83 53 -75 -205 -75 l-230 0 -11 44 c-15 59 -14 64 7
69 9 3 109 4 220 3 l204 -1 15 -40z m2187 8 c-4 -16 -10 -39 -14 -53 l-6 -25
-205 -3 c-112 -2 -219 0 -237 3 -29 5 -32 8 -26 33 19 79 -4 72 259 72 l235 0
-6 -27z m-1108 -36 c3 -8 -6 -43 -18 -78 -25 -69 -132 -274 -148 -284 -29 -18
9 118 56 200 12 22 32 65 44 95 30 77 53 100 66 67z m-638 -64 c-2 -5 -18 -37
-36 -72 -19 -35 -42 -96 -52 -135 -16 -64 -19 -68 -25 -43 -18 69 10 183 58
235 19 20 63 32 55 15z m1166 -35 l6 -28 264 0 264 0 -17 -45 -16 -45 -312 0
c-171 0 -314 4 -317 9 -3 4 6 19 20 32 14 13 42 46 62 73 20 27 37 45 38 40 1
-5 5 -21 8 -36z m-1543 -26 l206 -2 -10 -45 -10 -45 -309 0 -309 0 -18 43 -18
42 61 5 c64 5 73 5 407 2z m443 -49 c-41 -96 -56 -154 -61 -236 -3 -48 -9 -90
-13 -92 -15 -9 -33 86 -28 148 6 71 31 136 72 185 37 43 50 41 30 -5z m-247
-163 c3 -19 5 -37 5 -40 -1 -3 -123 -5 -271 -5 l-270 0 -18 35 c-9 19 -19 37
-20 40 -2 3 125 5 282 5 l285 0 7 -35z m1788 30 c2 -3 -5 -19 -15 -36 l-20
-29 -252 -5 c-139 -3 -318 -3 -398 0 l-145 5 55 30 c30 16 64 33 75 37 25 8
695 7 700 -2z m-377 -169 l273 -1 -28 -35 -29 -35 -430 0 c-236 -1 -465 0
-509 0 l-80 2 45 20 c108 50 127 53 310 51 96 -1 298 -2 448 -2z m-1327 -28
c19 -52 18 -52 -239 -53 l-240 0 -32 40 -32 40 266 0 266 0 11 -27z m1418
-156 c-67 -53 -79 -59 -79 -40 0 18 22 35 60 46 15 4 27 0 19 -6z m-1065 -25
c-31 -29 -54 -34 -54 -13 0 21 13 29 49 30 24 1 24 1 5 -17z"/>
<path d="M2036 2901 c-14 -27 -46 -67 -71 -88 -37 -32 -46 -45 -43 -66 l3 -27
70 45 c39 25 88 50 110 56 22 6 67 27 100 47 l60 37 -77 11 c-42 7 -85 17 -96
23 -29 16 -29 16 -56 -38z"/>
<path d="M1825 2460 c3 -5 13 -10 21 -10 8 0 14 5 14 10 0 6 -9 10 -21 10 -11
0 -17 -4 -14 -10z"/>
<path d="M1830 2390 c0 -5 5 -10 10 -10 6 0 10 5 10 10 0 6 -4 10 -10 10 -5 0
-10 -4 -10 -10z"/>
<path d="M3555 2880 c4 -6 11 -8 16 -5 14 9 11 15 -7 15 -8 0 -12 -5 -9 -10z"/>
<path d="M3680 2870 c0 -5 5 -10 10 -10 6 0 10 5 10 10 0 6 -4 10 -10 10 -5 0
-10 -4 -10 -10z"/>
<path d="M1530 2871 c0 -17 18 -21 24 -6 3 9 0 15 -9 15 -8 0 -15 -4 -15 -9z"/>
<path d="M1590 2860 c0 -5 5 -10 10 -10 6 0 10 5 10 10 0 6 -4 10 -10 10 -5 0
-10 -4 -10 -10z"/>
<path d="M1484 2845 c-15 -11 -16 -14 -4 -15 21 0 44 16 33 23 -6 4 -19 0 -29
-8z"/>
<path d="M3513 3691 c-40 -44 -73 -83 -73 -89 0 -16 91 -92 102 -86 5 3 -9 19
-31 36 -23 16 -41 33 -41 37 0 4 15 22 33 39 l34 33 29 -23 29 -22 -28 30 -27
30 28 27 c35 34 42 34 77 -3 16 -16 33 -30 39 -30 6 0 -12 23 -39 50 -27 28
-52 50 -55 49 -3 0 -38 -35 -77 -78z"/>
<path d="M1294 3658 c-11 -17 156 -172 170 -158 7 7 -13 33 -59 81 -80 80
-100 95 -111 77z"/>
<path d="M1194 3527 c-25 -14 -74 -70 -74 -85 0 -16 174 -142 184 -132 13 13
3 23 -79 85 -41 31 -75 60 -75 66 0 12 37 49 51 49 27 0 49 -22 49 -50 0 -16
-4 -32 -10 -35 -25 -15 -4 -20 72 -15 52 3 83 9 86 18 3 9 -15 12 -65 12 l-70
0 5 30 c3 20 -2 37 -13 50 -21 23 -32 24 -61 7z"/>
<path d="M3688 3507 c-65 -17 -118 -35 -118 -40 0 -5 7 -6 16 -3 49 19 59 16
91 -26 30 -40 31 -44 17 -70 -10 -19 -12 -34 -5 -45 7 -14 14 -7 36 38 15 30
43 82 62 117 19 34 31 62 26 61 -4 0 -61 -15 -125 -32z m56 -47 l-28 -52 -28
34 c-15 18 -28 36 -28 39 0 6 102 37 108 33 2 -2 -9 -26 -24 -54z"/>
<path d="M3911 3373 c-2 -35 -48 -80 -116 -114 -47 -23 -72 -30 -92 -25 -24 5
-25 5 -9 -5 30 -18 104 -4 150 28 44 30 81 91 73 120 -4 14 -5 13 -6 -4z"/>
<path d="M1087 3172 c43 -54 80 -94 82 -89 1 4 -4 16 -13 26 -21 23 -20 34 4
81 19 37 24 40 60 40 27 0 40 4 40 14 0 13 -101 26 -208 26 l-42 0 77 -98z
m60 62 l23 -6 -22 -39 c-12 -21 -25 -36 -29 -33 -4 2 -22 22 -39 44 l-32 40
39 0 c21 0 48 -3 60 -6z"/>
<path d="M921 3060 l-20 -61 27 -11 c86 -34 192 -65 192 -57 0 5 0 12 0 17 0
4 -21 14 -48 23 -48 16 -51 22 -39 69 5 17 2 15 -8 -7 -17 -37 -19 -38 -64
-22 -35 12 -41 40 -16 73 17 23 19 36 6 36 -5 0 -18 -27 -30 -60z"/>
<path d="M3960 3085 c-47 -19 -93 -36 -102 -38 -16 -5 -16 -9 3 -66 12 -34 25
-61 30 -61 12 0 11 11 -6 40 -27 47 -20 56 63 85 124 44 122 43 116 60 -8 19
-2 20 -104 -20z"/>
<path d="M4108 2934 c-3 -3 -1 -18 5 -34 6 -16 9 -32 6 -34 -3 -3 -51 -15
-107 -28 -56 -12 -102 -25 -102 -30 0 -19 30 -18 120 2 100 22 110 20 110 -27
0 -13 5 -23 11 -23 6 0 8 8 5 18 -3 9 -12 50 -21 90 -17 74 -18 76 -27 66z"/>
<path d="M968 2842 c-65 -15 -118 -29 -118 -32 0 -9 201 -142 206 -137 3 3 -8
14 -24 26 -29 20 -29 22 -20 68 11 51 21 63 54 63 13 0 24 8 27 20 3 11 2 20
-1 19 -4 -1 -60 -13 -124 -27z m37 -64 c-4 -24 -9 -45 -11 -47 -4 -5 -94 52
-94 60 0 6 62 22 103 28 5 0 6 -18 2 -41z"/>
<path d="M3966 2663 c-28 -5 -29 -5 -22 -60 3 -30 13 -67 21 -82 29 -57 124
-66 174 -16 21 21 26 36 29 95 l4 70 -88 -1 c-49 -1 -102 -4 -118 -6z m194
-63 c0 -65 -60 -107 -132 -93 -36 7 -65 40 -73 85 l-7 37 44 4 c23 2 71 4 106
5 l62 2 0 -40z"/>
<path d="M953 2601 c-10 -10 -31 -35 -46 -55 -36 -47 -72 -48 -71 -1 0 17 4
38 9 49 6 14 5 18 -6 14 -9 -3 -15 -22 -17 -51 -3 -40 0 -48 22 -62 35 -23 59
-12 100 45 43 60 68 64 96 18 14 -23 20 -28 20 -15 0 22 -18 59 -34 69 -20 14
-56 8 -73 -11z"/>
<path d="M1041 2513 c0 -6 -4 -20 -7 -30 -5 -14 -4 -15 5 -7 7 7 11 20 8 30
-3 11 -5 14 -6 7z"/>
<path d="M904 2372 c-8 -27 -13 -27 -30 -5 -7 10 -16 15 -20 11 -4 -5 1 -17
11 -28 18 -20 17 -20 -8 -20 -15 0 -27 -5 -27 -11 0 -7 10 -9 25 -7 21 4 23 3
14 -14 -5 -10 -7 -24 -3 -30 5 -8 12 -2 20 17 11 27 12 28 18 7 7 -22 17 -27
29 -15 4 3 0 15 -10 25 -15 17 -15 18 10 18 15 0 27 5 27 10 0 6 -12 10 -26
10 -23 0 -25 2 -14 15 10 12 10 19 1 28 -9 9 -13 7 -17 -11z"/>
<path d="M4070 2374 c0 -3 5 -14 11 -25 9 -18 7 -19 -15 -13 -20 5 -26 2 -26
-11 0 -14 6 -16 27 -10 27 6 27 6 8 -14 -13 -16 -15 -25 -8 -32 8 -8 15 -5 24
12 l12 23 9 -24 c6 -17 12 -20 20 -12 8 8 8 16 -3 28 -13 16 -12 17 14 10 20
-5 27 -3 27 9 0 10 -10 15 -27 15 -25 0 -26 1 -8 13 11 9 15 19 10 27 -6 10
-12 7 -26 -11 l-19 -24 0 23 c0 13 -6 22 -15 22 -8 0 -15 -3 -15 -6z"/>
<path d="M732 2278 c12 -105 45 -257 79 -362 37 -116 141 -326 214 -435 268
-400 702 -681 1174 -760 168 -29 427 -29 596 -1 682 111 1252 632 1424 1301
16 63 34 152 41 199 6 47 12 95 14 108 2 13 -2 22 -10 22 -9 0 -14 -12 -14
-32 0 -48 -25 -190 -49 -285 -140 -547 -551 -1002 -1091 -1208 -312 -119 -706
-139 -1045 -54 -688 173 -1224 779 -1307 1479 -7 59 -17 100 -23 100 -8 0 -9
-21 -3 -72z"/>
<path d="M3955 2076 c-22 -33 -16 -70 11 -74 16 -2 28 7 44 33 12 20 27 34 34
32 19 -6 19 -47 -1 -69 -14 -16 -14 -20 -3 -16 25 8 43 54 30 78 -16 29 -46
25 -67 -10 -19 -32 -53 -41 -53 -13 0 9 7 25 17 35 9 10 14 21 10 24 -3 3 -13
-6 -22 -20z"/>
<path d="M1085 1988 c5 -24 1 -28 -45 -43 -27 -9 -53 -21 -56 -27 -7 -11 18
-5 75 18 41 17 41 17 41 0 0 -8 5 -18 11 -22 13 -7 5 22 -17 71 -14 29 -14 29
-9 3z"/>
<path d="M3887 1895 c-9 -20 -17 -39 -17 -44 0 -8 93 -51 110 -51 10 0 44 79
37 86 -3 3 -11 -11 -18 -31 -10 -27 -18 -35 -34 -33 -21 3 -22 11 -11 63 6 26
5 25 -10 -7 -17 -40 -21 -43 -43 -29 -11 7 -11 15 -2 42 15 44 8 47 -12 4z"/>
<path d="M1092 1817 c-29 -16 -51 -31 -49 -34 3 -2 14 0 26 6 17 9 22 8 31 -9
8 -16 7 -25 -5 -42 -8 -13 -15 -29 -15 -38 0 -9 7 -4 17 12 13 20 23 26 39 22
12 -3 28 1 37 11 15 15 15 19 1 53 -8 20 -18 40 -22 43 -4 3 -31 -8 -60 -24z
m74 -53 c-9 -23 -35 -16 -50 15 -14 27 -14 29 7 38 18 9 24 7 35 -14 8 -14 11
-31 8 -39z"/>
<path d="M3801 1727 c-11 -19 -21 -38 -21 -43 0 -9 94 -64 108 -64 4 1 -3 9
-16 19 -30 26 -19 46 31 58 38 10 39 11 12 12 -21 1 -33 8 -40 24 -16 36 -49
33 -74 -6z m59 -11 c0 -29 -22 -49 -44 -40 -19 7 -20 18 -6 45 16 28 50 25 50
-5z"/>
<path d="M1192 1650 c-23 -17 -42 -38 -42 -48 0 -27 29 -62 51 -62 23 0 106
53 91 58 -6 2 -29 -9 -52 -24 -41 -27 -41 -27 -61 -8 -25 26 -17 46 32 78 21
15 39 28 39 31 0 12 -20 3 -58 -25z"/>
<path d="M3758 1574 c46 -39 53 -67 21 -85 -18 -9 -27 -6 -59 20 -41 32 -50
37 -50 22 0 -4 18 -21 40 -36 47 -32 81 -29 98 10 15 32 7 47 -38 80 -51 38
-61 30 -12 -11z"/>
<path d="M1298 1487 l-47 -42 35 -37 c43 -48 53 -49 18 -2 -25 32 -26 36 -11
51 15 15 18 15 37 -10 12 -15 26 -27 33 -27 6 0 -2 14 -18 30 -27 29 -28 31
-12 47 16 16 19 15 47 -17 16 -19 29 -31 30 -27 0 9 -53 77 -60 77 -3 -1 -26
-20 -52 -43z"/>
<path d="M3582 1437 c-35 -36 -44 -61 -12 -32 20 18 21 18 58 -18 54 -53 65
-46 12 8 -37 37 -41 46 -30 60 22 27 5 16 -28 -18z"/>
<path d="M3491 1333 c7 -10 24 -30 38 -45 29 -33 22 -34 -52 -9 -79 27 -81 20
-14 -59 15 -18 30 -30 33 -27 3 3 -9 21 -25 40 -17 19 -31 37 -31 40 0 3 27
-4 61 -15 33 -11 63 -18 66 -14 7 7 -68 106 -80 106 -5 0 -3 -8 4 -17z"/>
<path d="M1512 1269 c-29 -17 -51 -33 -48 -36 2 -3 13 0 23 5 27 15 68 -17 60
-47 -3 -11 -2 -23 2 -26 7 -4 41 100 41 125 0 17 -23 11 -78 -21z m60 -4 c-6
-33 -20 -41 -39 -22 -14 14 -12 17 13 31 16 8 30 15 30 16 1 0 -1 -11 -4 -25z"/>
<path d="M3307 1215 c-20 -14 -37 -28 -37 -30 0 -8 61 -105 66 -105 9 0 84 53
80 57 -2 2 -19 -5 -38 -17 -32 -19 -36 -19 -49 -4 -11 14 -9 20 21 46 l35 30
-39 -22 c-31 -19 -40 -20 -47 -9 -14 22 -11 29 21 47 16 9 30 20 30 25 0 10
-1 10 -43 -18z"/>
<path d="M1665 1179 c-35 -54 -43 -81 -16 -50 20 22 22 22 46 7 36 -24 44 -19
12 7 -20 15 -26 27 -22 40 9 21 24 22 53 1 13 -9 25 -14 28 -11 5 5 -58 47
-70 47 -3 0 -17 -18 -31 -41z"/>
<path d="M3194 1089 l7 -62 -47 41 c-27 23 -51 39 -54 36 -5 -6 90 -93 103
-94 4 0 7 32 7 70 0 45 -4 70 -11 70 -8 0 -10 -18 -5 -61z"/>
<path d="M1830 1136 c0 -2 -11 -29 -25 -60 -14 -31 -21 -56 -16 -56 6 0 13 9
16 21 11 33 49 21 53 -16 2 -16 8 -34 14 -40 7 -7 9 -1 5 20 -5 25 -2 33 16
40 36 16 29 56 -13 77 -35 17 -50 21 -50 14z m51 -26 c27 -15 25 -50 -3 -50
-35 0 -51 15 -43 39 7 23 17 26 46 11z"/>
<path d="M1991 1014 c-24 -63 -24 -64 -13 -64 10 0 47 108 40 115 -3 3 -15
-20 -27 -51z"/>
<path d="M2947 1053 c-10 -3 -17 -10 -14 -16 2 -7 12 -36 21 -64 l17 -53 37
16 c55 23 67 58 36 102 -15 22 -50 27 -97 15z m81 -15 c7 -7 12 -27 12 -45 0
-27 -5 -35 -26 -43 -14 -6 -27 -10 -29 -10 -2 0 -10 21 -19 47 -13 37 -13 48
-4 55 19 12 52 10 66 -4z"/>
<path d="M2108 1013 c-44 -51 -24 -113 37 -113 18 0 36 4 39 9 3 4 -11 8 -30
7 -45 -1 -63 21 -49 60 16 44 39 52 75 26 16 -12 30 -18 30 -13 0 15 -42 41
-66 41 -11 0 -28 -8 -36 -17z"/>
<path d="M2786 963 c-4 -27 -9 -56 -12 -65 -3 -10 -1 -18 5 -18 6 0 11 9 11
19 0 27 59 41 72 17 5 -9 13 -16 19 -16 5 0 -7 25 -27 55 -20 30 -42 55 -49
55 -8 0 -16 -20 -19 -47z m43 6 c11 -18 11 -23 -1 -30 -22 -15 -28 -10 -28 21
0 35 10 38 29 9z"/>
<path d="M2297 938 c-36 -64 -40 -92 -8 -50 13 18 23 22 44 17 14 -4 29 -16
33 -27 3 -11 8 -17 11 -14 8 8 -27 136 -37 136 -5 0 -24 -28 -43 -62z m53 -5
c0 -16 -5 -20 -20 -16 -24 6 -23 5 -8 38 13 28 28 17 28 -22z"/>
<path d="M2562 935 l-2 -60 -35 53 c-20 28 -40 52 -45 52 -6 0 -9 -29 -8 -67
l1 -68 6 59 6 60 40 -60 40 -59 3 38 c2 20 1 54 -1 75 -2 26 -4 19 -5 -23z"/>
</g>
</svg>
